<?xml version="1.0" encoding="UTF-8"?>
<svg width="24px" height="24px" viewBox="0 0 24 24" version="1.1" xmlns="http://www.w3.org/2000/svg" xmlns:xlink="http://www.w3.org/1999/xlink">
    <!-- Generator: Sketch 49.3 (51167) - http://www.bohemiancoding.com/sketch -->
    <title>checked</title>
    <desc>Created with Sketch.</desc>
    <defs></defs>
    <g id="Final" stroke="none" stroke-width="1" fill="none" fill-rule="evenodd">
        <g id="1" transform="translate(-732.000000, -290.000000)" fill="#FFFFFF" fill-rule="nonzero">
            <g id="Group-11" transform="translate(0.000000, -5.000000)">
                <g id="Group-5" transform="translate(732.000000, 137.000000)">
                    <g id="Group-4" transform="translate(0.000000, 152.000000)">
                        <g id="checked" transform="translate(0.000000, 6.000000)">
                            <path d="M12,0 C5.34545455,0 0,5.34545455 0,12 C0,18.6545455 5.34545455,24 12,24 C18.6545455,24 24,18.6545455 24,12 C24,5.34545455 18.6545455,0 12,0 Z M18.9272727,8.23636364 L10.2,17.2909091 C10.0909091,17.4 9.98181818,17.4545455 9.81818182,17.4545455 C9.65454545,17.4545455 9.49090909,17.4 9.43636364,17.2909091 L5.18181818,12.7090909 L5.07272727,12.6 C4.96363636,12.4909091 4.90909091,12.3272727 4.90909091,12.2181818 C4.90909091,12.1090909 4.96363636,11.9454545 5.07272727,11.8363636 L5.83636364,11.0727273 C6.05454545,10.8545455 6.38181818,10.8545455 6.6,11.0727273 L6.65454545,11.1272727 L9.65454545,14.3454545 C9.76363636,14.4545455 9.92727273,14.4545455 10.0363636,14.3454545 L17.3454545,6.76363636 L17.4,6.76363636 C17.6181818,6.54545455 17.9454545,6.54545455 18.1636364,6.76363636 L18.9272727,7.52727273 C19.1454545,7.69090909 19.1454545,8.01818182 18.9272727,8.23636364 Z" id="Shape"></path>
                        </g>
                    </g>
                </g>
            </g>
        </g>
    </g>
</svg>