<?xml version="1.0" encoding="UTF-8"?>
<svg width="24px" height="15px" viewBox="0 0 24 15" version="1.1" xmlns="http://www.w3.org/2000/svg" xmlns:xlink="http://www.w3.org/1999/xlink">
    <!-- Generator: Sketch 49.3 (51167) - http://www.bohemiancoding.com/sketch -->
    <title>Google+</title>
    <desc>Created with Sketch.</desc>
    <defs></defs>
    <g id="Final" stroke="none" stroke-width="1" fill="none" fill-rule="evenodd">
        <g id="5" transform="translate(-1240.000000, -33.000000)" fill="#000000">
            <g id="Group-4" transform="translate(175.000000, 0.000000)">
                <g id="Social" transform="translate(963.000000, 31.000000)">
                    <path d="M109,8.85714286 L109,11.2571429 L112.97,11.2571429 C112.81,12.2861429 111.77,14.2771429 109,14.2771429 C106.61,14.2771429 104.66,12.2981429 104.66,9.85714286 C104.66,7.41714286 106.61,5.43714286 109,5.43714286 C110.36,5.43714286 111.27,6.01714286 111.79,6.51714286 L113.69,4.68714286 C112.47,3.54714286 110.89,2.85714286 109,2.85714286 C105.13,2.85714286 102,5.98714286 102,9.85714286 C102,13.7271429 105.13,16.8571429 109,16.8571429 C113.04,16.8571429 115.721,14.0171429 115.721,10.0171429 C115.721,9.55714286 115.67,9.20714286 115.61,8.85714286 L109,8.85714286 L109,8.85714286 Z M109,8.85714286 L126,10.8571429 L123,10.8571429 L123,13.8571429 L121,13.8571429 L121,10.8571429 L118,10.8571429 L118,8.85714286 L121,8.85714286 L121,5.85714286 L123,5.85714286 L123,8.85714286 L126,8.85714286 L126,10.8571429 L109,8.85714286 Z" id="Google+"></path>
                </g>
            </g>
        </g>
    </g>
</svg>