<?xml version="1.0" encoding="UTF-8"?>
<svg width="24px" height="18px" viewBox="0 0 24 18" version="1.1" xmlns="http://www.w3.org/2000/svg" xmlns:xlink="http://www.w3.org/1999/xlink">
    <!-- Generator: Sketch 49.3 (51167) - http://www.bohemiancoding.com/sketch -->
    <title>india</title>
    <desc>Created with Sketch.</desc>
    <defs></defs>
    <g id="Final" stroke="none" stroke-width="1" fill="none" fill-rule="evenodd">
        <g id="1" transform="translate(-756.000000, -610.000000)" fill-rule="nonzero">
            <g id="Group-11" transform="translate(0.000000, -5.000000)">
                <g id="Group-5" transform="translate(732.000000, 137.000000)">
                    <g id="Group-10" transform="translate(0.000000, 458.000000)">
                        <g id="india" transform="translate(24.000000, 20.000000)">
                            <g id="Group" transform="translate(11.988304, 8.981855) scale(-1, 1) rotate(-180.000000) translate(-11.988304, -8.981855) ">
                                <path d="M0,2.77016129 C0,1.24995968 1.19169591,0.0174798387 2.66146199,0.0174798387 L21.2917544,0.0174798387 C22.7615789,0.0174798387 23.9532164,1.25002016 23.9532164,2.77016129 L23.9532164,5.52284274 L0,5.52284274 L0,2.77016129 Z" id="Shape" fill="#138808"></path>
                                <polygon id="Shape" fill="#EEEEEE" points="0 5.52284274 23.9532164 5.52284274 23.9532164 12.4045766 0 12.4045766"></polygon>
                                <path d="M23.9532164,12.4045766 L23.9532164,15.1572581 C23.9532164,16.6774597 22.7615205,17.9099395 21.2917544,17.9099395 L2.66146199,17.9099395 C1.19169591,17.9099395 0,16.6774597 0,15.1572581 L0,12.4045766 L23.9532164,12.4045766 Z" id="Shape" fill="#FF9933"></path>
                                <path d="M14.6380702,8.96370968 C14.6380702,10.4845766 13.4463743,11.7170565 11.9759649,11.7170565 C10.5061404,11.7170565 9.31450292,10.4845161 9.31450292,8.96370968 C9.31450292,7.44350806 10.5061988,6.21102823 11.9759649,6.21102823 C13.4464327,6.21102823 14.6380702,7.44350806 14.6380702,8.96370968" id="Shape" fill="#000080"></path>
                                <path d="M13.9726901,8.96370968 C13.9726901,10.1040121 13.0784211,11.0289315 11.9759064,11.0289315 C10.8733918,11.0289315 9.97982456,10.1040121 9.97982456,8.96370968 C9.97982456,7.82340726 10.8733918,6.89921371 11.9759064,6.89921371 C13.0784211,6.89921371 13.9726901,7.82340726 13.9726901,8.96370968" id="Shape" fill="#EEEEEE"></path>
                                <g transform="translate(9.941520, 6.895161)" fill="#000080" id="Shape">
                                    <g opacity="0.6">
                                        <polygon points="2.03508772 4.13304435 2.13222222 2.57504032 2.79894737 3.97548387 2.3125731 2.49798387 3.44637427 3.52887097 2.4502924 2.35554435 3.87883041 2.85858871 2.52479532 2.1690121 4.03116959 2.06854839 2.52479532 1.96808468 3.87883041 1.27923387 2.4502924 1.7816129 3.44637427 0.608951613 2.3125731 1.6391129 2.79894737 0.161612903 2.13222222 1.56205645 2.03508772 0.00405241935 1.93795322 1.56205645 1.27122807 0.161612903 1.75760234 1.6391129 0.623157895 0.608891129 1.61988304 1.78155242 0.191345029 1.27917339 1.54538012 1.96802419 0.039005848 2.0684879 1.54538012 2.16895161 0.191345029 2.85852823 1.61988304 2.35548387 0.623157895 3.52881048 1.75760234 2.49792339 1.27122807 3.97542339 1.93795322 2.57497984"></polygon>
                                    </g>
                                    <path d="M1.3697076,2.06854839 C1.3697076,2.44844758 1.66777778,2.75673387 2.03508772,2.75673387 C2.40239766,2.75673387 2.70046784,2.44844758 2.70046784,2.06854839 C2.70046784,1.68864919 2.40239766,1.3803629 2.03508772,1.3803629 C1.66777778,1.3803629 1.3697076,1.68864919 1.3697076,2.06854839"></path>
                                </g>
                            </g>
                        </g>
                    </g>
                </g>
            </g>
        </g>
    </g>
</svg>