<?xml version="1.0" encoding="UTF-8"?>
<svg width="160px" height="52px" viewBox="0 0 160 52" version="1.1" xmlns="http://www.w3.org/2000/svg" xmlns:xlink="http://www.w3.org/1999/xlink">
    <!-- Generator: Sketch 49.3 (51167) - http://www.bohemiancoding.com/sketch -->
    <title>logo</title>
    <desc>Created with Sketch.</desc>
    <defs>
        <linearGradient x1="50%" y1="0%" x2="50%" y2="100%" id="linearGradient-1">
            <stop stop-color="#D2E3E7" offset="0%"></stop>
            <stop stop-color="#ABB3B3" offset="100%"></stop>
        </linearGradient>
        <path d="M39.609375,8.86368273e-16 C47.125,8.86368273e-16 52,4.875 52,12.390625 L52,39.609375 C52,47.125 47.125,52 39.609375,52 L12.390625,52 C4.875,52 0,47.125 0,39.609375 L0,12.390625 C0,4.875 4.875,8.86368277e-16 12.390625,8.86368277e-16 L39.609375,8.86368273e-16 Z" id="path-2"></path>
        <linearGradient x1="50%" y1="0%" x2="50%" y2="100%" id="linearGradient-4">
            <stop stop-color="#EB1A47" offset="0%"></stop>
            <stop stop-color="#9F041B" offset="100%"></stop>
        </linearGradient>
        <linearGradient x1="16.414924%" y1="50%" x2="91.577991%" y2="50%" id="linearGradient-5">
            <stop stop-color="#EB3860" offset="0%"></stop>
            <stop stop-color="#EB1A47" offset="15.7356395%"></stop>
            <stop stop-color="#EB1A47" offset="31.7738439%"></stop>
            <stop stop-color="#EB1A47" offset="47.3559429%"></stop>
            <stop stop-color="#EB1A47" offset="69.5051139%"></stop>
            <stop stop-color="#EB1A47" offset="76.7521676%"></stop>
            <stop stop-color="#EB1A47" offset="86.5406776%"></stop>
            <stop stop-color="#EB1A47" offset="100%"></stop>
        </linearGradient>
    </defs>
    <g id="Final" stroke="none" stroke-width="1" fill="none" fill-rule="evenodd">
        <g id="1" transform="translate(-199.000000, -16.000000)">
            <g id="Group-9" transform="translate(175.000000, 0.000000)">
                <g id="logo" transform="translate(24.000000, 16.000000)">
                    <g id="Group">
                        <mask id="mask-3" fill="white">
                            <use xlink:href="#path-2"></use>
                        </mask>
                        <use id="round-mask" fill="url(#linearGradient-1)" xlink:href="#path-2"></use>
                        <g id="ðŸ‘‰ðŸ¼-your-App-Icon" mask="url(#mask-3)">
                            <rect id="background" fill="url(#linearGradient-4)" x="0" y="0" width="52" height="52"></rect>
                            <g id="Guides---hide-before-export" opacity="0.121942935" stroke-width="1" transform="translate(0.050781, 0.050781)">
                                <g id="iOS-Icon-Guides"></g>
                            </g>
                            <g id="Group" stroke-width="1" transform="translate(6.398438, 13.152344)" fill="#FFFFFF">
                                <g id="Vifo-final-logo" fill-rule="nonzero">
                                    <g id="g10" transform="translate(19.652344, 12.898438) scale(-1, 1) rotate(-180.000000) translate(-19.652344, -12.898438) ">
                                        <g id="g12" transform="translate(-0.000000, 0.000000)">
                                            <g id="g14-Clipped" transform="translate(-0.000000, 0.000000)">
                                                <g id="g14" transform="translate(-0.000001, -0.000002)">
                                                    <g id="g20" transform="translate(11.153147, 16.146052)">
                                                        <path d="M5.75858286,2.76496263 C5.66560702,1.14827748 4.30560141,-0.0855496442 2.72158018,0.00938415631 C1.13724696,0.104317957 -0.0717509193,1.49210022 0.0215369171,3.10909766 C0.114512754,4.7257828 1.47451837,5.95929765 3.05853959,5.86436385 C4.64287282,5.76943005 5.8515587,4.38164778 5.75858286,2.76496263" id="path22"></path>
                                                    </g>
                                                    <g id="g24" transform="translate(33.211819, 11.268667)">
                                                        <path d="M2.83823796,0.014572841 C1.18776086,0.113566311 -0.0714689367,1.55912079 0.0255628933,3.2432589 C0.122282724,4.9277093 1.53907224,6.21306299 3.18954935,6.11406952 C4.83971445,6.01507605 6.09925625,4.56952157 6.00222442,2.88507118 C5.90519259,1.20062078 4.48871507,-0.0847329108 2.83823796,0.014572841 Z" id="path26"></path>
                                                    </g>
                                                    <g id="g28" transform="translate(19.170691, 0.019001)" fill-opacity="0.7">
                                                        <path d="M13.2465697,0 C12.0188519,0 10.8859819,0.801316224 10.5190705,2.03920302 C8.79589754,7.8520246 3.34713909,12.1249825 1.85234971,12.6877151 C0.380960287,13.2417038 -0.363470408,14.8846206 0.190328621,16.3570314 C0.743503652,17.8297544 2.38555677,18.5745475 3.8560102,18.0208711 C6.84590096,16.8954059 13.693977,11.3589541 15.976565,3.66026012 C16.4236602,2.15193691 15.5644137,0.566167698 14.0574563,0.118667251 C13.7872648,0.0384107153 13.5145773,0 13.2465697,0" id="path30"></path>
                                                    </g>
                                                    <g id="g32" transform="translate(0.036959, 0.081208)" fill-opacity="0.7">
                                                        <path d="M12.9804252,1.73254186 C12.9183374,1.87556712 9.28260773,10.1226288 1.77402889,13.2460757 C0.322295435,13.8500296 -0.36535136,15.5173044 0.238055583,16.9703537 C0.841150526,18.4230907 2.50597961,19.1122976 3.95864906,18.5077191 C13.681176,14.4630396 18.0385604,4.38819002 18.2195201,3.96098791 C18.832599,2.51231061 18.1564962,0.840039222 16.7091307,0.226404623 C16.3468993,0.0727617616 15.970316,0 15.5999727,0 C14.4933106,0 13.4415604,0.649859338 12.9804252,1.73254186 Z" id="path34"></path>
                                                    </g>
                                                    <g id="g36" transform="translate(12.814098, 0.019314)" fill-opacity="0.7">
                                                        <path d="M2.32129393,0.0502774404 C0.776896634,0.343510462 -0.238037587,1.83403359 0.0549298997,3.37983067 C0.0876898423,3.55470872 0.897016424,7.71305901 3.67349956,12.4812965 C7.38254906,18.850605 12.8855954,23.3755747 19.5876557,25.5665469 C21.082133,26.0549563 22.6889302,25.2386505 23.1768974,23.7431309 C23.6651765,22.2476112 22.8492979,20.6390454 21.3551326,20.150636 C8.36129134,15.9023484 5.67341605,2.45422611 5.6478321,2.3190079 C5.38918455,0.952460827 4.19516264,0 2.85450099,0 C2.6785333,0 2.50038161,0.0165509586 2.32129393,0.0502774404 Z" id="path38"></path>
                                                    </g>
                                                    <g id="g40" transform="translate(19.155871, 11.651965)">
                                                        <path d="M7.39190008,4.23028698 C6.02191049,5.3076607 4.77110468,6.04901873 3.87098626,6.38784496 C2.40053283,6.94152137 0.758479712,6.19672823 0.204992682,4.7240052 C-0.348494348,3.25159444 0.395936347,1.60867758 1.86732577,1.05500118 C2.23236513,0.917284708 2.83514807,0.556598723 3.5605468,0.00791882955 C4.59108099,1.45253646 5.85343078,2.90371203 7.39190008,4.23028698" id="path42"></path>
                                                    </g>
                                                    <g id="g60" transform="translate(12.811674, 0.008409)">
                                                        <path d="M3.9599061,0.238995662 C5.41663155,0.857002212 6.09741435,2.53957891 5.48027944,3.99762468 C5.39260759,4.20404324 4.32276146,6.64733948 2.16746924,9.58154339 C0.529160114,6.02371185 0.0764489071,3.49172746 0.050240953,3.35307414 C-0.0598948539,2.76973092 0.0215370033,2.19263335 0.239624621,1.68548699 C0.240872619,1.68298873 0.242120617,1.68017819 0.243368614,1.67736765 C0.265208576,1.62677793 0.291104531,1.5780619 0.315752488,1.52903359 C0.823063598,0.575635915 1.80898187,0.0110296277 2.84357206,0.0110296277 C3.2160994,0.0110296277 3.59517874,0.0844159537 3.9599061,0.238995662" id="path62"></path>
                                                    </g>
                                                </g>
                                            </g>
                                        </g>
                                    </g>
                                </g>
                            </g>
                        </g>
                    </g>
                    <g id="Group-7" transform="translate(64.000000, 13.000000)" fill="#241B26" fill-rule="nonzero">
                        <g id="g44" transform="translate(14.000000, 14.500000) scale(1, -1) translate(-14.000000, -14.500000) ">
                            <path d="M11.3821135,2.29945887 L0.435660208,24.8556174 C-1.18177737,28.078309 3.74864022,30.7119559 5.57409574,27.3260027 L9.2626855,19.1284319 L14.0278662,8.3612157 L18.7734226,19.1016048 L22.5098957,27.2777141 C24.1877762,30.3697198 29.0212496,28.4006165 27.5925981,25.0230947 L16.8879166,2.28412914 C15.9212219,-0.279384253 12.957555,-0.881842477 11.3821135,2.29945887" id="path46"></path>
                        </g>
                        <g id="g48" transform="translate(35.000000, 14.500000) scale(1, -1) translate(-35.000000, -14.500000) translate(32.000000, 0.000000)">
                            <path d="M0.065210837,26.1453291 C0.0745247498,29.5253404 5.30186517,29.6339476 5.29143359,26.1298138 L5.22660875,2.5899784 C5.21692229,-0.83231213 -0.00967302196,-0.899415866 1.34473546e-05,2.60549372 L0.065210837,26.1453291 Z" id="path50"></path>
                        </g>
                        <g id="g52" transform="translate(53.500000, 15.000000) scale(1, -1) translate(-53.500000, -15.000000) translate(43.000000, 1.000000)">
                            <path d="M5.83333333,22.7027027 L5.81427778,16.3081081 L16.3539444,16.2782162 C17.8422222,16.2740541 19.3254444,14.822973 19.3219444,13.415027 C19.3180556,12.0880541 17.8266667,11.0058919 16.3383889,11.0104324 L5.79872222,11.0403243 L5.77383333,2.59454054 C5.76955556,1.18735135 4.73277778,0.104054054 3.28572222,0.108594595 C1.46688889,0.113513514 0.354277778,1.20248649 0.358944444,2.60967568 L0.426611111,25.4527568 C0.430888889,26.9000541 1.54972222,27.9424865 3.36855556,27.9375676 L17.8764444,27.8967027 C19.6952778,27.8917838 20.7662778,26.8425405 20.7623889,25.3952432 C20.7585,24.1083784 19.6793333,22.6637297 17.8608889,22.6686486 L5.83333333,22.7027027 Z" id="path54"></path>
                        </g>
                        <g id="g56" transform="translate(81.500000, 15.000000) scale(1, -1) translate(-81.500000, -15.000000) translate(67.000000, 1.000000)">
                            <path d="M14.3340424,22.913958 C9.95885161,22.926131 5.18377779,19.9337113 5.1661359,13.9213036 C5.14812646,7.94684705 9.90519084,4.88854972 14.2803816,4.87637668 C18.77245,4.86420364 23.586483,7.89493261 23.6044924,13.8690311 C23.6221343,19.8814388 18.8264783,22.9017849 14.3340424,22.913958 M14.6960689,0.195484704 C7.46877117,-0.0887915872 -0.0176418983,4.61286616 0.00992356781,13.9356248 C0.0382241131,23.2966927 7.55183511,27.8802003 14.7783977,27.8597926 C21.6135307,27.4978237 28.7482084,22.8735005 28.7217456,13.8547099 C28.6945476,4.83627725 21.5319369,0.175793021 14.6960689,0.195484704" id="path58"></path>
                        </g>
                    </g>
                </g>
            </g>
        </g>
    </g>
</svg>