<?xml version="1.0" encoding="UTF-8"?>
<svg width="17px" height="15px" viewBox="0 0 17 15" version="1.1" xmlns="http://www.w3.org/2000/svg" xmlns:xlink="http://www.w3.org/1999/xlink">
    <!-- Generator: Sketch 49.3 (51167) - http://www.bohemiancoding.com/sketch -->
    <title>Twitter</title>
    <desc>Created with Sketch.</desc>
    <defs></defs>
    <g id="Final" stroke="none" stroke-width="1" fill="none" fill-rule="evenodd">
        <g id="5" transform="translate(-1138.000000, -33.000000)" fill="#000000">
            <g id="Group-4" transform="translate(175.000000, 0.000000)">
                <g id="Social" transform="translate(963.000000, 31.000000)">
                    <path d="M15.2601824,6.34397573 C15.2663488,6.49573241 15.2698725,6.64838178 15.2698725,6.80192383 C15.2698725,11.4724588 11.7620479,16.8571429 5.34718624,16.8571429 C3.37744844,16.8571429 1.54425329,16.2724333 0,15.2699465 C0.273085294,15.3020832 0.550575189,15.3190443 0.832469686,15.3190443 C2.46657685,15.3190443 3.9703078,14.7539738 5.16395481,13.8059409 C3.63731993,13.777375 2.34941445,12.7552491 1.90631153,11.3510535 C2.11861333,11.3930097 2.33708156,11.4153269 2.56171624,11.4153269 C2.87972847,11.4153269 3.18805058,11.3715852 3.48051612,11.2912435 C1.88516945,10.9663056 0.683594155,9.53800749 0.683594155,7.82583507 L0.683594155,7.78120075 C1.1540056,8.04543591 1.69136698,8.20433408 2.26308426,8.2230805 C1.3275469,7.58927319 0.711783605,6.50733734 0.711783605,5.28167898 C0.711783605,4.63358869 0.883563064,4.02656197 1.18395689,3.50434046 C2.90439424,5.64232426 5.47403876,7.05009063 8.37226656,7.19738388 C8.3132449,6.93850484 8.28241269,6.66891356 8.28241269,6.39128811 C8.28241269,4.43987575 9.84340346,2.85714286 11.7699762,2.85714286 C12.7733444,2.85714286 13.6798114,3.28652499 14.3158358,3.97389348 C15.110426,3.81499531 15.8565654,3.5213015 16.5304695,3.1160219 C16.270598,3.94086408 15.71738,4.63358869 14.9967872,5.071005 C15.7024044,4.9861998 16.3745466,4.79605761 17,4.51486141 C16.5322313,5.22365437 15.9411338,5.84585675 15.2601824,6.34397573" id="Twitter"></path>
                </g>
            </g>
        </g>
    </g>
</svg>