<?xml version="1.0" encoding="UTF-8"?>
<svg width="20px" height="15px" viewBox="0 0 20 15" version="1.1" xmlns="http://www.w3.org/2000/svg" xmlns:xlink="http://www.w3.org/1999/xlink">
    <!-- Generator: Sketch 49.3 (51167) - http://www.bohemiancoding.com/sketch -->
    <title>YouTube</title>
    <desc>Created with Sketch.</desc>
    <defs></defs>
    <g id="Final" stroke="none" stroke-width="1" fill="none" fill-rule="evenodd">
        <g id="5" transform="translate(-1201.000000, -33.000000)" fill="#ffffff">
            <g id="Group-4" transform="translate(175.000000, 0.000000)">
                <g id="Social" transform="translate(963.000000, 31.000000)">
                    <path d="M70.935,12.438873 L70.934375,6.84621292 L76.338125,9.6521844 L70.935,12.438873 Z M82.8,5.87709221 C82.8,5.87709221 82.604375,4.50551892 82.005,3.90152905 C81.244375,3.10844245 80.391875,3.10471028 80.00125,3.05868016 C77.2025,2.85714286 73.004375,2.85714286 73.004375,2.85714286 L72.995625,2.85714286 C72.995625,2.85714286 68.7975,2.85714286 65.99875,3.05868016 C65.6075,3.10471028 64.755625,3.10844245 63.994375,3.90152905 C63.395,4.50551892 63.2,5.87709221 63.2,5.87709221 C63.2,5.87709221 63,7.48814654 63,9.09857885 L63,10.6088645 C63,12.2199189 63.2,13.8303512 63.2,13.8303512 C63.2,13.8303512 63.395,15.2019245 63.994375,15.8059144 C64.755625,16.5990009 65.755,16.5741198 66.2,16.6568496 C67.8,16.8098687 73,16.8571429 73,16.8571429 C73,16.8571429 77.2025,16.8509226 80.00125,16.6493853 C80.391875,16.6027331 81.244375,16.5990009 82.005,15.8059144 C82.604375,15.2019245 82.8,13.8303512 82.8,13.8303512 C82.8,13.8303512 83,12.2199189 83,10.6088645 L83,9.09857885 C83,7.48814654 82.8,5.87709221 82.8,5.87709221 L82.8,5.87709221 Z" id="YouTube"></path>
                </g>
            </g>
        </g>
    </g>
</svg>